<?xml version="1.0" encoding="UTF-8"?>
<svg xmlns="http://www.w3.org/2000/svg" version="1.1" xmlns:xlink="http://www.w3.org/1999/xlink" viewBox="0 0 172 172">
  <defs>
    <style>
      .cls-1 {
        fill: #02a9ff;
      }

      .cls-1, .cls-2, .cls-3 {
        fill-rule: evenodd;
      }

      .cls-4 {
        mask: url(#mask);
      }

      .cls-2 {
        fill: #fff;
      }

      .cls-5 {
        filter: url(#luminosity-noclip);
      }
    </style>
    <filter id="luminosity-noclip" x="72.2" y="34.9" width="98.3" height="102.6" color-interpolation-filters="sRGB" filterUnits="userSpaceOnUse">
      <feFlood flood-color="#fff" result="bg"/>
      <feBlend in="SourceGraphic" in2="bg"/>
    </filter>
    <mask id="mask" x="72.2" y="34.9" width="98.3" height="102.6" maskUnits="userSpaceOnUse">
      <g class="cls-5">
        <path id="D" class="cls-3" d="M99.9,106.1v-39.9h19.2c10.6,0,19.2,9,19.2,20s-8.6,20-19.2,20h-19.2Z"/>
      </g>
    </mask>
  </defs>
  <!-- Generator: Adobe Illustrator 28.6.0, SVG Export Plug-In . SVG Version: 1.2.0 Build 709)  -->
  <g>
    <g id="Layer_1">
      <g class="cls-4">
        <path id="D-2" data-name="D" class="cls-1" d="M72.2,137.3V34.9h49.1c27.2,0,49.1,23,49.1,51.3s-22,51.2-49.1,51.2"/>
      </g>
      <path id="A" class="cls-2" d="M37.6,34.8L1.5,137.4h28l6.1-17.7h30.5l6,17.7h27.9l-35.9-102.6s-26.5,0-26.5,0ZM42,96.9l8.7-28.4,9.6,28.4h-18.3Z"/>
    </g>
  </g>
</svg>